<?xml version="1.0" encoding="UTF-8"?>
<svg xmlns="http://www.w3.org/2000/svg" xmlns:xlink="http://www.w3.org/1999/xlink" viewBox="0 0 480 480" width="480px" height="480px">
<g id="surface167648">
<path style=" stroke:none;fill-rule:nonzero;fill:rgb(14.901961%,68.627453%,37.254903%);fill-opacity:1;" d="M 103.199219 240 C 103.199219 164.449219 164.449219 103.199219 240 103.199219 C 315.550781 103.199219 376.800781 164.449219 376.800781 240 C 376.800781 315.550781 315.550781 376.800781 240 376.800781 C 164.449219 376.800781 103.199219 315.550781 103.199219 240 Z M 240 338.398438 C 294.34375 338.398438 338.398438 294.34375 338.398438 240 C 338.398438 185.65625 294.34375 141.601562 240 141.601562 C 185.65625 141.601562 141.601562 185.65625 141.601562 240 C 141.601562 294.34375 185.65625 338.398438 240 338.398438 Z M 240 338.398438 "/>
<path style=" stroke:none;fill-rule:nonzero;fill:rgb(14.901961%,68.627453%,37.254903%);fill-opacity:1;" d="M 240 0 C 107.6875 0 0 107.6875 0 240 C 0 372.3125 107.6875 480 240 480 C 372.3125 480 480 372.3125 480 240 C 480 107.6875 372.3125 0 240 0 Z M 240 40 C 350.695312 40 440 129.304688 440 240 C 440 350.695312 350.695312 440 240 440 C 129.304688 440 40 350.695312 40 240 C 40 129.304688 129.304688 40 240 40 Z M 240 40 "/>
</g>
</svg>
